<svg width="150" height="152" viewBox="0 0 150 152" fill="none" xmlns="http://www.w3.org/2000/svg">
<g filter="url(#filter0_d)">
<path d="M55.4644 79.443C55.4644 77.6391 54.0013 76.1777 52.1959 76.1777H40.7901C38.9869 76.1777 37.5234 77.6391 37.5234 79.443V90.8473C37.5234 92.6535 38.9869 94.1155 40.7901 94.1155H52.1959C54.0013 94.1155 55.4644 92.6535 55.4644 90.8473V79.443Z" fill="#FF0000"/>
<path d="M83.9703 79.443C83.9703 77.6391 82.5069 76.1777 80.7051 76.1777H69.2978C67.4945 76.1777 66.031 77.6391 66.031 79.443V90.8473C66.031 92.6535 67.4945 94.1155 69.2978 94.1155H80.7051C82.5069 94.1155 83.9703 92.6535 83.9703 90.8473V79.443Z" fill="#FF0000"/>
<path d="M112.474 79.443C112.474 77.6391 111.011 76.1777 109.208 76.1777H97.8017C95.9964 76.1777 94.5332 77.6391 94.5332 79.443V90.8473C94.5332 92.6535 95.9964 94.1155 97.8017 94.1155H109.208C111.011 94.1155 112.474 92.6535 112.474 90.8473V79.443Z" fill="#FF0000"/>
<path d="M55.4644 107.952C55.4644 106.145 54.0013 104.685 52.1959 104.685H40.7901C38.9869 104.685 37.5234 106.145 37.5234 107.952V119.354C37.5234 121.159 38.9869 122.621 40.7901 122.621H52.1959C54.0013 122.621 55.4644 121.159 55.4644 119.354V107.952Z" fill="#FF0000"/>
<path d="M83.9703 107.952C83.9703 106.145 82.5069 104.685 80.7051 104.685H69.2978C67.4945 104.685 66.031 106.145 66.031 107.952V119.354C66.031 121.159 67.4945 122.621 69.2978 122.621H80.7051C82.5069 122.621 83.9703 121.159 83.9703 119.354V107.952Z" fill="#FF0000"/>
<path d="M112.474 107.952C112.474 106.145 111.011 104.685 109.209 104.685H97.8017C95.9964 104.685 94.5332 106.145 94.5332 107.952V119.354C94.5332 121.159 95.9964 122.621 97.8017 122.621H109.209C111.011 122.621 112.474 121.159 112.474 119.354V107.952Z" fill="#FF0000"/>
<path d="M132.87 16.0332V33.4524C132.87 41.3257 126.483 47.6703 118.611 47.6703H109.616C101.743 47.6703 95.2712 41.3257 95.2712 33.4524V15.9707H54.7278V33.4524C54.7278 41.3257 48.2563 47.6703 40.3848 47.6703H31.3879C23.516 47.6703 17.1292 41.3257 17.1292 33.4524V16.0332C10.2492 16.2406 4.59568 21.9336 4.59568 28.9311V131.016C4.59568 138.145 10.3739 144 17.503 144H132.496C139.614 144 145.403 138.133 145.403 131.016V28.9311C145.403 21.9336 139.75 16.2406 132.87 16.0332ZM128.692 124.659C128.692 127.739 126.194 130.239 123.112 130.239H26.6412C23.5591 130.239 21.0611 127.739 21.0611 124.659V71.9283C21.0611 68.8462 23.5588 66.3467 26.6412 66.3467H123.112C126.194 66.3467 128.692 68.8462 128.692 71.9283L128.692 124.659Z" fill="#FF0000"/>
<path d="M31.3553 38.3325H40.2528C42.9534 38.3325 45.1431 36.146 45.1431 33.4454V4.88887C45.1431 2.18794 42.9534 0 40.2528 0H31.3553C28.6544 0 26.465 2.18794 26.465 4.88887V33.4454C26.465 36.146 28.6544 38.3325 31.3553 38.3325Z" fill="#FF0000"/>
<path d="M109.502 38.3325H118.399C121.098 38.3325 123.288 36.146 123.288 33.4454V4.88887C123.288 2.18794 121.098 0 118.399 0H109.502C106.801 0 104.612 2.18794 104.612 4.88887V33.4454C104.612 36.146 106.801 38.3325 109.502 38.3325Z" fill="#FF0000"/>
</g>
<defs>
<filter id="filter0_d" x="-1" y="0" width="152" height="152" filterUnits="userSpaceOnUse" color-interpolation-filters="sRGB">
<feFlood flood-opacity="0" result="BackgroundImageFix"/>
<feColorMatrix in="SourceAlpha" type="matrix" values="0 0 0 0 0 0 0 0 0 0 0 0 0 0 0 0 0 0 127 0"/>
<feOffset dy="4"/>
<feGaussianBlur stdDeviation="2"/>
<feColorMatrix type="matrix" values="0 0 0 0 0 0 0 0 0 0 0 0 0 0 0 0 0 0 0.25 0"/>
<feBlend mode="normal" in2="BackgroundImageFix" result="effect1_dropShadow"/>
<feBlend mode="normal" in="SourceGraphic" in2="effect1_dropShadow" result="shape"/>
</filter>
</defs>
</svg>
