<svg width="144" height="149" viewBox="0 0 144 149" fill="none" xmlns="http://www.w3.org/2000/svg">
<g filter="url(#filter0_d)">
<path d="M72.1328 109.195C79.4678 109.195 85.4141 103.031 85.4141 95.4262C85.4141 87.8218 79.4678 81.6572 72.1328 81.6572C64.7978 81.6572 58.8516 87.8218 58.8516 95.4262C58.8516 103.031 64.7978 109.195 72.1328 109.195Z" fill="#FF0000"/>
<path d="M136.016 0H7.98438C5.78394 0 4 1.84925 4 4.13058V103.266C4 105.548 5.78394 107.397 7.98438 107.397H54.3073C45.1735 92.8284 55.3055 73.3966 72.1328 73.3966C88.9602 73.3966 99.0922 92.8281 89.9584 107.397H136.016C138.216 107.397 140 105.548 140 103.266V4.13058C140 1.84925 138.216 0 136.016 0V0ZM56.0625 16.798H87.9375C90.1379 16.798 91.9219 18.6473 91.9219 20.9286C91.9219 23.2099 90.1379 25.0592 87.9375 25.0592H56.0625C53.8621 25.0592 52.0781 23.2099 52.0781 20.9286C52.0781 18.6473 53.8621 16.798 56.0625 16.798ZM111.844 66.3658H32.1562C29.9558 66.3658 28.1719 64.5166 28.1719 62.2353C28.1719 59.9539 29.9558 58.1047 32.1562 58.1047H111.844C114.044 58.1047 115.828 59.9539 115.828 62.2353C115.828 64.5166 114.044 66.3658 111.844 66.3658ZM111.844 49.8432H32.1562C29.9558 49.8432 28.1719 47.994 28.1719 45.7126C28.1719 43.4313 29.9558 41.5821 32.1562 41.5821H111.844C114.044 41.5821 115.828 43.4313 115.828 45.7126C115.828 47.994 114.044 49.8432 111.844 49.8432Z" fill="#FF0000"/>
<path d="M56.2617 110.054V136.862C56.2617 140.138 59.7892 142.132 62.4475 140.305L72.2658 133.557L82.0841 140.305C84.7019 142.104 88.27 140.176 88.27 136.862V109.737C79.876 119.896 64.8483 120.057 56.2617 110.054Z" fill="#FF0000"/>
</g>
<defs>
<filter id="filter0_d" x="0" y="0" width="144" height="149" filterUnits="userSpaceOnUse" color-interpolation-filters="sRGB">
<feFlood flood-opacity="0" result="BackgroundImageFix"/>
<feColorMatrix in="SourceAlpha" type="matrix" values="0 0 0 0 0 0 0 0 0 0 0 0 0 0 0 0 0 0 127 0"/>
<feOffset dy="4"/>
<feGaussianBlur stdDeviation="2"/>
<feColorMatrix type="matrix" values="0 0 0 0 0 0 0 0 0 0 0 0 0 0 0 0 0 0 0.25 0"/>
<feBlend mode="normal" in2="BackgroundImageFix" result="effect1_dropShadow"/>
<feBlend mode="normal" in="SourceGraphic" in2="effect1_dropShadow" result="shape"/>
</filter>
</defs>
</svg>
