<svg width="42" height="42" viewBox="0 0 42 42" fill="none" xmlns="http://www.w3.org/2000/svg">
<g clip-path="url(#clip0)">
<path d="M37.5806 11.0511C36.7107 11.472 36.3467 12.5187 36.7675 13.3882C37.9172 15.7632 38.5 18.3233 38.5 21C38.5 30.6494 30.6494 38.5 21 38.5C11.3506 38.5 3.5 30.6494 3.5 21C3.5 11.3506 11.3506 3.5 21 3.5C24.9986 3.5 28.7549 4.80566 31.864 7.27557C32.6181 7.87756 33.7208 7.75153 34.3228 6.99487C34.9248 6.23865 34.7988 5.13721 34.0417 4.53607C30.361 1.61072 25.7292 0 21 0C9.4212 0 0 9.4212 0 21C0 32.5788 9.4212 42 21 42C32.5788 42 42 32.5788 42 21C42 17.7914 41.2993 14.7165 39.9176 11.8642C39.4976 10.9926 38.4474 10.6295 37.5806 11.0511Z" fill="#FF0000"/>
<path d="M21 7C20.034 7 19.25 7.784 19.25 8.75V21C19.25 21.966 20.034 22.75 21 22.75H29.75C30.716 22.75 31.5 21.966 31.5 21C31.5 20.034 30.716 19.25 29.75 19.25H22.75V8.75C22.75 7.784 21.966 7 21 7Z" fill="#FF0000"/>
</g>
<defs>
<clipPath id="clip0">
<rect width="42" height="42" fill="white"/>
</clipPath>
</defs>
</svg>
