<svg width="22" height="22" viewBox="0 0 22 22" fill="none" xmlns="http://www.w3.org/2000/svg">
<path d="M18.3026 3.82512C16.6231 1.39438 13.9613 0 11.0002 0C8.03923 0 5.37744 1.39438 3.69793 3.82512C2.02666 6.24357 1.64075 9.3054 2.66358 12.0105C2.93716 12.7492 3.37205 13.4669 3.95307 14.1395L10.4146 21.7292C10.5608 21.901 10.7749 22 11.0002 22C11.2256 22 11.4397 21.901 11.5859 21.7292L18.0456 14.1415C18.6292 13.4651 19.0635 12.7482 19.3349 12.0154C20.3597 9.3054 19.9738 6.24357 18.3026 3.82512ZM17.8944 11.4767C17.6852 12.042 17.3436 12.601 16.8797 13.1387C16.8785 13.14 16.8772 13.1413 16.8761 13.1428L11.0002 20.0444L5.12075 13.1385C4.65716 12.6013 4.3156 12.0423 4.10432 11.4715C3.25844 9.23437 3.57946 6.70282 4.96331 4.70001C6.3515 2.69079 8.55202 1.53845 11.0002 1.53845C13.4484 1.53845 15.6487 2.69075 17.0369 4.70001C18.421 6.70282 18.7423 9.23437 17.8944 11.4767Z" fill="#FF0000"/>
<path d="M11.0003 4.56396C8.62511 4.56396 6.69255 6.49627 6.69255 8.87167C6.69255 11.2471 8.62486 13.1794 11.0003 13.1794C13.3757 13.1794 15.308 11.2471 15.308 8.87167C15.308 6.49653 13.3754 4.56396 11.0003 4.56396ZM11.0003 11.6409C9.47332 11.6409 8.231 10.3986 8.231 8.87162C8.231 7.34469 9.47332 6.10238 11.0003 6.10238C12.5272 6.10238 13.7695 7.34469 13.7695 8.87162C13.7695 10.3986 12.5272 11.6409 11.0003 11.6409Z" fill="#FF0000"/>
</svg>
