<svg width="19" height="19" viewBox="0 0 19 19" fill="none" xmlns="http://www.w3.org/2000/svg">
<g clip-path="url(#clip0)">
<path d="M18.5824 9.08513C18.5814 4.06652 14.5122 -0.00101452 9.49341 1.89811e-07C4.4748 0.0010149 0.407265 4.07043 0.40828 9.08904C0.409149 13.0422 2.96549 16.5412 6.73137 17.7436C6.76732 17.755 6.80472 17.7607 6.84226 17.7606C6.91387 17.7605 6.98403 17.7413 7.04564 17.7049C7.1258 17.6575 7.18567 17.5822 7.21379 17.4933L9.50863 10.2199C10.136 10.2167 10.6419 9.70541 10.6386 9.07817C10.6354 8.45079 10.1243 7.94489 9.49689 7.94807C9.32815 7.9488 9.1616 7.98765 9.00997 8.06172L5.97831 5.02962C5.82784 4.88438 5.58823 4.88858 5.44298 5.0389C5.30121 5.18575 5.30121 5.41826 5.44298 5.5651L8.47304 8.59865C8.24053 9.07324 8.37346 9.64612 8.79152 9.96967L6.60496 16.9004C2.28375 15.3086 0.0711061 10.5153 1.6629 6.19408C3.25468 1.87286 8.04803 -0.339783 12.3692 1.25201C16.6905 2.8438 18.9031 7.63728 17.3113 11.9584C16.5336 14.0695 14.9357 15.7768 12.8807 16.6926L12.6444 15.5797C12.6012 15.3752 12.4001 15.2444 12.1956 15.2878C12.1311 15.3015 12.0712 15.3318 12.0219 15.3757L9.74375 17.4097C9.58749 17.5487 9.57357 17.788 9.71273 17.9443C9.75796 17.995 9.81594 18.0327 9.88088 18.0534L12.7895 18.9817C12.9885 19.0457 13.2017 18.9362 13.2657 18.737C13.286 18.6741 13.2893 18.6072 13.2757 18.5425L13.0434 17.4505C16.4066 16.0327 18.5903 12.7349 18.5824 9.08513ZM9.49544 8.7065C9.70447 8.7065 9.87407 8.8761 9.87407 9.08513C9.87407 9.2943 9.70447 9.46376 9.49544 9.46376C9.28626 9.46376 9.11681 9.2943 9.11681 9.08513C9.11681 8.8761 9.28626 8.7065 9.49544 8.7065ZM10.7425 17.532L12.0393 16.3752L12.3972 18.0617L10.7425 17.532Z" fill="#FF0000"/>
<path d="M9.11655 1.89084V2.6481C9.11655 2.85728 9.286 3.02673 9.49518 3.02673C9.70421 3.02673 9.87381 2.85728 9.87381 2.6481V1.89084C9.87381 1.68181 9.70421 1.51221 9.49518 1.51221C9.286 1.51221 9.11655 1.68181 9.11655 1.89084Z" fill="#FF0000"/>
<path d="M2.30136 8.70605C2.09219 8.70605 1.92273 8.87566 1.92273 9.08469C1.92273 9.29386 2.09219 9.46332 2.30136 9.46332H3.05862C3.2678 9.46332 3.43726 9.29386 3.43726 9.08469C3.43726 8.87566 3.2678 8.70605 3.05862 8.70605H2.30136Z" fill="#FF0000"/>
<path d="M16.6894 9.46332C16.8986 9.46332 17.068 9.29386 17.068 9.08469C17.068 8.87566 16.8986 8.70605 16.6894 8.70605H15.9321C15.7231 8.70605 15.5535 8.87566 15.5535 9.08469C15.5535 9.29386 15.7231 9.46332 15.9321 9.46332H16.6894Z" fill="#FF0000"/>
</g>
<defs>
<clipPath id="clip0">
<rect width="19" height="19" fill="white"/>
</clipPath>
</defs>
</svg>
