<svg width="142" height="142" viewBox="0 0 142 142" fill="none" xmlns="http://www.w3.org/2000/svg">
<g filter="url(#filter0_d)">
<path d="M141.956 63.0353V63.0342C141.724 60.822 140.578 58.7831 138.812 57.4321L130.73 51.1398L133.768 41.1164C134.416 38.9778 134.147 36.641 133.03 34.7039C131.912 32.7679 130.023 31.3671 127.846 30.8579L117.679 28.4842L116.381 18.125C116.102 15.9062 114.906 13.8803 113.099 12.5694C111.29 11.2531 108.992 10.7407 106.798 11.1632L96.5442 13.1295L91.1436 4.19271C88.9941 0.635981 84.4808 -0.707409 80.6478 1.065C80.378 1.18959 80.118 1.33909 79.8916 1.49943L70.9916 7.69852L62.4232 1.73019C60.5891 0.453973 58.2847 -0.0107965 56.0985 0.452889C53.9122 0.916575 51.9946 2.28163 50.8387 4.19488L45.4402 13.1306L35.1849 11.1632C32.9889 10.7428 30.6932 11.2553 28.8873 12.5683C27.078 13.8824 25.882 15.9084 25.6046 18.125L24.3067 28.4853L13.5531 30.9955L13.0483 31.1602L12.8619 31.2414C8.95528 32.9499 7.00086 37.1036 8.21641 41.1164L11.2531 51.1398L2.82444 57.6964L2.33584 58.1211L2.19825 58.2717C-0.630449 61.3615 -0.740953 66.0352 1.93499 69.1597L8.53384 77.051L3.18521 86.757L2.97178 87.2423L2.91003 87.4233C1.57639 91.409 3.39322 95.7404 7.1352 97.4965L16.5866 101.932L15.7015 112.334C15.5119 114.563 16.2616 116.794 17.7566 118.453C19.2517 120.114 21.3914 121.092 23.6275 121.138L34.0658 121.346L37.4893 131.208C38.2216 133.321 39.8131 135.054 41.8542 135.962C43.8953 136.871 46.2473 136.895 48.3101 136.027L57.9315 131.972L65.4838 140.031L65.8792 140.383L66.0319 140.497C67.5238 141.599 69.2669 142.138 70.9938 142.138C73.179 142.138 75.3371 141.274 76.9156 139.589L84.055 131.972L93.6776 136.028C95.736 136.895 98.0869 136.871 100.128 135.963C102.171 135.054 103.763 133.321 104.495 131.209L107.92 121.346L118.961 121.126L119.486 121.069L119.674 121.031C123.791 120.191 126.633 116.452 126.283 112.336L125.399 101.932L134.851 97.4965C136.874 96.5475 138.431 94.7837 139.122 92.6571C139.812 90.5315 139.59 88.1892 138.511 86.2316L133.452 77.051L140.052 69.1597C141.494 67.475 142.188 65.2454 141.956 63.0353ZM71.4337 106.576C51.9361 106.576 36.0733 90.7135 36.0733 71.2159C36.0733 51.7173 51.9361 35.8555 71.4337 35.8555C90.9323 35.8555 106.795 51.7173 106.795 71.2159C106.795 90.7135 90.9312 106.576 71.4337 106.576Z" fill="#FF0000"/>
<path d="M71.433 44.1807C56.5267 44.1807 44.3983 56.308 44.3983 71.2152C44.3983 86.1214 56.5267 98.2487 71.433 98.2487C86.3403 98.2487 98.4676 86.1214 98.4676 71.2152C98.4676 56.308 86.3403 44.1807 71.433 44.1807ZM87.4843 66.1234L68.1156 85.4909C67.3031 86.3045 66.2382 86.7108 65.1721 86.7108C64.1071 86.7108 63.0411 86.3045 62.2286 85.4909L54.828 78.0903C53.2019 76.4642 53.2019 73.8283 54.828 72.2022C56.4531 70.5771 59.0889 70.5771 60.7151 72.2022L65.1732 76.6603L81.5972 60.2363C83.2223 58.6102 85.8592 58.6102 87.4843 60.2363C89.1105 61.8614 89.1105 64.4972 87.4843 66.1234Z" fill="#FF0000"/>
</g>
<defs>
<filter id="filter0_d" x="-4" y="0.277344" width="150" height="149.861" filterUnits="userSpaceOnUse" color-interpolation-filters="sRGB">
<feFlood flood-opacity="0" result="BackgroundImageFix"/>
<feColorMatrix in="SourceAlpha" type="matrix" values="0 0 0 0 0 0 0 0 0 0 0 0 0 0 0 0 0 0 127 0"/>
<feOffset dy="4"/>
<feGaussianBlur stdDeviation="2"/>
<feColorMatrix type="matrix" values="0 0 0 0 0 0 0 0 0 0 0 0 0 0 0 0 0 0 0.25 0"/>
<feBlend mode="normal" in2="BackgroundImageFix" result="effect1_dropShadow"/>
<feBlend mode="normal" in="SourceGraphic" in2="effect1_dropShadow" result="shape"/>
</filter>
</defs>
</svg>
