<svg width="44" height="44" viewBox="0 0 44 44" fill="none" xmlns="http://www.w3.org/2000/svg">
<path d="M36.605 7.65024C33.246 2.78876 27.9224 0 22.0004 0C16.0783 0 10.7548 2.78876 7.39573 7.65024C4.05319 12.4871 3.28139 18.6108 5.32704 24.021C5.87421 25.4984 6.74398 26.9338 7.90603 28.2789L20.8291 43.4584C21.1214 43.802 21.5496 44 22.0004 44C22.4511 44 22.8793 43.8021 23.1716 43.4584L36.0911 28.2831C37.2583 26.9302 38.127 25.4964 38.6696 24.0308C40.7194 18.6108 39.9476 12.4871 36.605 7.65024ZM35.7886 22.9533C35.3702 24.0841 34.6871 25.202 33.7594 26.2774C33.7568 26.2799 33.7542 26.2825 33.7522 26.2856L22.0004 40.0887L10.2414 26.2769C9.3142 25.2025 8.63108 24.0847 8.20853 22.9431C6.51676 18.4687 7.1588 13.4056 9.9265 9.40002C12.7029 5.38158 17.1039 3.07691 22.0004 3.07691C26.8968 3.07691 31.2973 5.38149 34.0737 9.40002C36.842 13.4056 37.4845 18.4687 35.7886 22.9533Z" fill="#FF0000"/>
<path d="M22.0005 9.12842C17.2503 9.12842 13.3851 12.993 13.3851 17.7438C13.3851 22.4946 17.2497 26.3592 22.0005 26.3592C26.7513 26.3592 30.6159 22.4946 30.6159 17.7438C30.6159 12.9935 26.7508 9.12842 22.0005 9.12842ZM22.0005 23.2822C18.9467 23.2822 16.462 20.7976 16.462 17.7437C16.462 14.6899 18.9467 12.2052 22.0005 12.2052C25.0544 12.2052 27.539 14.6899 27.539 17.7437C27.539 20.7976 25.0544 23.2822 22.0005 23.2822Z" fill="#FF0000"/>
</svg>
