<svg width="45" height="50" viewBox="0 0 45 50" fill="none" xmlns="http://www.w3.org/2000/svg">
<path d="M35.1474 30.8934C34.2621 29.8647 33.1941 29.3147 32.0623 29.3147C30.9396 29.3147 29.8625 29.8546 28.9407 30.8832L26.0563 34.0915C25.819 33.9489 25.5817 33.8165 25.3535 33.6841C25.0249 33.5008 24.7146 33.3277 24.4499 33.1443C21.7481 31.2295 19.2928 28.7342 16.9379 25.5055C15.7969 23.8963 15.0302 22.5417 14.4734 21.1667C15.2219 20.4028 15.9156 19.6084 16.591 18.8445C16.8466 18.5593 17.1021 18.264 17.3577 17.9788C19.2745 15.8399 19.2745 13.0696 17.3577 10.9307L14.8659 8.15022C14.5829 7.83448 14.2908 7.50856 14.017 7.18264C13.4694 6.55116 12.8943 5.89932 12.301 5.28822C11.4156 4.31045 10.3568 3.79102 9.24328 3.79102C8.12971 3.79102 7.05265 4.31045 6.13989 5.28822C6.13076 5.2984 6.13076 5.2984 6.12164 5.30859L3.01825 8.80206C1.84992 10.1057 1.1836 11.6946 1.03756 13.5381C0.818496 16.5121 1.60347 19.2825 2.20589 21.0954C3.68457 25.5463 5.89345 29.6712 9.18851 34.0915C13.1864 39.4183 17.9967 43.6247 23.4915 46.5886C25.5908 47.6988 28.393 49.0126 31.5238 49.2367C31.7155 49.2469 31.9163 49.2571 32.0988 49.2571C34.2073 49.2571 35.978 48.4117 37.3654 46.7312C37.3746 46.7108 37.3928 46.7006 37.402 46.6803C37.8766 46.0386 38.4242 45.458 38.9993 44.8368C39.3918 44.4192 39.7934 43.9812 40.1859 43.5229C41.0895 42.4738 41.5641 41.2516 41.5641 39.9989C41.5641 38.7359 41.0804 37.5239 40.1585 36.5054L35.1474 30.8934ZM38.4151 41.6183C38.406 41.6183 38.406 41.6285 38.4151 41.6183C38.0591 42.0461 37.694 42.4331 37.3015 42.8609C36.7083 43.4923 36.1058 44.1544 35.5399 44.8979C34.618 45.9979 33.5318 46.5173 32.1079 46.5173C31.971 46.5173 31.825 46.5173 31.6881 46.5071C28.9772 46.3136 26.4579 45.1321 24.5685 44.1238C19.4023 41.3331 14.8659 37.3711 11.0962 32.3499C7.98367 28.1638 5.90257 24.2935 4.52431 20.138C3.67544 17.6019 3.3651 15.626 3.50201 13.7622C3.59329 12.5705 4.00403 11.5826 4.76162 10.7372L7.87414 7.26412C8.32139 6.7956 8.79603 6.54098 9.26153 6.54098C9.83657 6.54098 10.3021 6.92801 10.5942 7.25393C10.6033 7.26412 10.6124 7.2743 10.6215 7.28449C11.1783 7.86504 11.7077 8.46595 12.2645 9.10761C12.5475 9.43353 12.8396 9.75945 13.1316 10.0956L15.6235 12.8761C16.591 13.9557 16.591 14.9538 15.6235 16.0334C15.3588 16.3288 15.1032 16.6242 14.8385 16.9094C14.0718 17.7853 13.3416 18.6001 12.5475 19.3945C12.5292 19.4149 12.511 19.4251 12.5018 19.4454C11.7169 20.3213 11.8629 21.1769 12.0272 21.7574C12.0363 21.788 12.0455 21.8186 12.0546 21.8491C12.7026 23.6009 13.6154 25.2509 15.0028 27.2166L15.0119 27.2268C17.5311 30.6897 20.1873 33.3888 23.1172 35.4563C23.4915 35.7211 23.8748 35.935 24.2399 36.1387C24.5685 36.3221 24.8789 36.4952 25.1436 36.6785C25.1801 36.6989 25.2166 36.7295 25.2531 36.7498C25.5634 36.923 25.8555 37.0045 26.1567 37.0045C26.9143 37.0045 27.389 36.4748 27.5441 36.3017L30.6658 32.8184C30.9761 32.4721 31.469 32.0545 32.044 32.0545C32.61 32.0545 33.0755 32.4517 33.3584 32.798C33.3675 32.8082 33.3675 32.8082 33.3767 32.8184L38.406 38.4304C39.3461 39.4692 39.3461 40.5387 38.4151 41.6183Z" fill="#FF0000" stroke="#FF0000" stroke-width="0.6"/>
<path d="M24.3403 12.4786C26.7318 12.9267 28.9042 14.1897 30.6384 16.1249C32.3727 18.06 33.4954 20.484 33.9061 23.1525C34.0065 23.8247 34.5268 24.2933 35.1201 24.2933C35.1931 24.2933 35.257 24.2831 35.33 24.2729C36.0055 24.1507 36.4527 23.4377 36.3432 22.684C35.8503 19.4554 34.4812 16.5119 32.3909 14.1795C30.3007 11.8471 27.6628 10.3194 24.7693 9.76938C24.0939 9.64716 23.4641 10.1462 23.3454 10.8897C23.2268 11.6332 23.6649 12.3564 24.3403 12.4786Z" fill="#FF0000" stroke="#FF0000" stroke-width="0.6"/>
<path d="M44.1655 22.2873C43.3532 16.9707 41.1078 12.1328 37.6576 8.2829C34.2073 4.43295 29.8717 1.92743 25.1071 1.02096C24.4408 0.888557 23.811 1.39781 23.6923 2.14132C23.5828 2.89501 24.0301 3.59778 24.7055 3.73018C28.959 4.5348 32.8382 6.7857 35.9233 10.2181C39.0085 13.6606 41.0165 17.9893 41.7376 22.7355C41.838 23.4077 42.3583 23.8762 42.9516 23.8762C43.0246 23.8762 43.0885 23.866 43.1615 23.8558C43.8278 23.7438 44.2842 23.0308 44.1655 22.2873Z" fill="#FF0000" stroke="#FF0000" stroke-width="0.6"/>
</svg>
